inDegrees=no
num_controls=7
num_derivatives=13
num_iterations=77
num_multipliers=7
num_parameters=0
num_slacks=7
num_states=26
objective=0.453060
objective_accelerations=0.048364
objective_balance=0.001033
objective_effort=0.037560
objective_height=0.360466
objective_ligament=0.005636
solver_duration=862.365659
status=Solve_Succeeded
success=true
DataType=double
version=3
OpenSimVersion=4.5
endheader
time	/jointset/ground_pelvis/pelvis_tilt/value	/jointset/ground_pelvis/pelvis_tx/value	/jointset/ground_pelvis/pelvis_ty/value	/jointset/hip_r/hip_flexion_r/value	/jointset/hip_r/hip_adduction_r/value	/jointset/hip_r/hip_rotation_r/value	/jointset/back/lumbar_extension/value	/jointset/patellofemoral_r/patellar_flexion_r/value	/jointset/knee_r/knee_flexion_r/value	/jointset/knee_r/knee_adduction_r/value	/jointset/knee_r/knee_rotation_r/value	/jointset/ankle_r/ankle_angle_r/value	/jointset/subtalar_r/subtalar_angle_r/value	/jointset/ground_pelvis/pelvis_tilt/speed	/jointset/ground_pelvis/pelvis_tx/speed	/jointset/ground_pelvis/pelvis_ty/speed	/jointset/hip_r/hip_flexion_r/speed	/jointset/hip_r/hip_adduction_r/speed	/jointset/hip_r/hip_rotation_r/speed	/jointset/back/lumbar_extension/speed	/jointset/patellofemoral_r/patellar_flexion_r/speed	/jointset/knee_r/knee_flexion_r/speed	/jointset/knee_r/knee_adduction_r/speed	/jointset/knee_r/knee_rotation_r/speed	/jointset/ankle_r/ankle_angle_r/speed	/jointset/subtalar_r/subtalar_angle_r/speed	/forceset/tau_hip_flexion_r	/forceset/tau_hip_adduction_r	/forceset/tau_hip_rotation_r	/forceset/tau_knee_flexion_r	/forceset/tau_ankle_angle_r	/forceset/tau_subtalar_angle_r	/forceset/tau_lumbar_extension	lambda_cid13_p0	lambda_cid14_p0	lambda_cid14_p1	lambda_cid14_p2	lambda_cid14_p3	lambda_cid14_p4	lambda_cid14_p5	/jointset/ground_pelvis/pelvis_tilt/accel	/jointset/ground_pelvis/pelvis_tx/accel	/jointset/ground_pelvis/pelvis_ty/accel	/jointset/hip_r/hip_flexion_r/accel	/jointset/hip_r/hip_adduction_r/accel	/jointset/hip_r/hip_rotation_r/accel	/jointset/back/lumbar_extension/accel	/jointset/patellofemoral_r/patellar_flexion_r/accel	/jointset/knee_r/knee_flexion_r/accel	/jointset/knee_r/knee_adduction_r/accel	/jointset/knee_r/knee_rotation_r/accel	/jointset/ankle_r/ankle_angle_r/accel	/jointset/subtalar_r/subtalar_angle_r/accel	gamma_cid13_p0	gamma_cid14_p0	gamma_cid14_p1	gamma_cid14_p2	gamma_cid14_p3	gamma_cid14_p4	gamma_cid14_p5
1	-0.2215860138176502	-0.01389176028572562	0.6333060041605515	1.423538046586665	-0.2387676691838776	-0.0856106812893047	-0.7853976955730024	1.518636270284909	1.518636270284905	-0.174532751389411	0.174485639729974	0.4362517457920566	0.1748749805345236	0.06945208448106829	0.004937773896981365	0.01523192705736434	-0.09998156182387229	-0.0009952760504926958	-0.00275715376753634	-0.0001510334793385589	-0.01741316023220022	-0.01741316023220021	0.00324390025482277	-0.0002005340551742538	0.01311744673731269	0.004924543656197614	-0.3270801729761764	0.03947303039434125	0.01028387645344742	-0.4707851542481165	-0.008924370211810244	-0.0003591026698735246	0.3547569125063855	-0.04095169218527956	-55.2839651900057	-14.86860174949863	8.541088141198951	7.824393080154488	-770.1537087635622	61.06937615171242	1.238923925730822	0.1402361127302185	1.840894990668589	-5.460009719477778	0.2691298301238107	-0.6650326412275904	-0.02034478693482937	-5.092911993598691	-5.09291199359869	0.6133041137513742	-0.0331152352115113	-1.018427097912926	0.001481474366889713	1.650718205003005e-09	1.217247205027058e-09	1.187413084296551e-08	1.00157623564183e-08	7.054547055466923e-10	-5.840653022302746e-09	2.23589347453353e-08
1.01	-0.2208304081343455	-0.01383522076479043	0.6335502293513858	1.422266130456954	-0.2387643094845079	-0.08566861281646655	-0.7853980064205813	1.518207988121873	1.518207988121867	-0.1744666230032157	0.1744817954154212	0.4363321627365442	0.1749240389708501	0.08164602297301676	0.00638815462468709	0.03361154681562697	-0.1543980072534724	0.001656002499569824	-0.008784811520260919	0.0002382220601271454	-0.06823673577750793	-0.06823673577750805	0.01004077770446172	-0.0005557247391665017	0.002985871859385819	0.004874755144216542	-0.3277335836563878	0.03951488880405262	0.01034612098425168	-0.4707495180559984	-0.009180937432248385	-0.0003492799147848287	0.3556795011324812	-0.04094753105855165	-55.39520659384481	-14.88122524530239	8.54014468736805	7.661932232434625	-770.728818347195	61.0756604124623	1.206176256941068	0.1501427580926428	1.836258291676601	-5.431911839486108	0.2614497068304861	-0.5649793800080399	0.09096444439219957	-5.076100909482629	-5.076100909482606	0.7217298477548653	-0.03482003898862867	-1.007533633480186	-0.01005716540067951	5.283925283168164e-09	5.732502342598553e-09	3.665359570347467e-08	3.650874392987431e-08	2.797618305711566e-10	-1.259500839407583e-08	7.265693197238472e-08
1.02	-0.2199535535769203	-0.01376363669551758	0.6339782033044569	1.420450159895987	-0.238734772431758	-0.08578549032871062	-0.7853899439690805	1.517271666088487	1.517271666088484	-0.1743307557850786	0.1744747793832221	0.436311861742211	0.1749722298917732	0.09370185930553591	0.007946683564511699	0.05198167950473407	-0.2087924480744691	0.004240194624956791	-0.01454635078151178	0.001523626399790029	-0.1190211343022489	-0.1190211343022492	0.01719166664148906	-0.0008348775829807142	-0.007026141048446133	0.004751040575432471	-0.328386994336609	0.03955674721375015	0.01040836551508181	-0.4707138818638797	-0.009437504652690522	-0.0003394571597247257	0.3566020897585667	-0.04095070793017208	-55.51409291122229	-14.89088072559847	8.533808523345915	7.502239737195726	-771.4271627569352	61.11587951684478	1.211303493844954	0.1618657551540011	1.838997576837484	-5.455608797757109	0.255712545188699	-0.6118089429328537	0.1588849731048852	-5.085076589485341	-5.085076589485345	0.6841064112290436	-0.01790766717590392	-0.9945147038939293	-0.01330373699370644	1.147992090687397e-08	1.562125646095867e-08	6.874062473957422e-08	8.139701497798936e-08	-6.013555012746961e-09	-1.94924586559946e-08	1.504034955266345e-07
1.03	-0.2189572022777359	-0.01367598854281082	0.6345897428900411	1.41809094958319	-0.2386796937415014	-0.08595870484453029	-0.785364309485837	1.515827617335156	1.515827617335153	-0.1741216720539544	0.1744653490479203	0.4361917275985611	0.1750187195007426	0.1055063641881555	0.009594852319487947	0.07031564614775598	-0.2629845994001287	0.006769166353703327	-0.02005999731819171	0.003778874247634176	-0.1697901516241598	-0.1697901516241603	0.02467331666244058	-0.00104203526736061	-0.01701152607744157	0.004527810523863305	-0.328712372581896	0.03962159607465349	0.01052459320601873	-0.4704166545772089	-0.009791216168914268	-0.0003346336907711202	0.3572502405025196	-0.04097123236351919	-55.6467060285373	-14.90081940285447	8.522616008319844	7.467946131062115	-771.7845575922436	61.12234369124753	1.155723910714602	0.1680757253244725	1.829002168308586	-5.391261002793308	0.250549146090059	-0.5156493949297144	0.2851852901482578	-5.073048170654835	-5.073048170654822	0.7874270818757126	-0.0207123003128474	-1.002175707130633	-0.02966236795267665	1.770206743410571e-08	2.556484220157177e-08	1.009022207570574e-07	1.264729930615602e-07	-1.236674557002779e-08	-2.639136906985364e-08	2.284301464923865e-07
1.04	-0.2178446659446769	-0.01357150204462309	0.6353843033341101	1.41519176921657	-0.2385995134020798	-0.08618595720290705	-0.785310854404201	1.513875831635184	1.513875831635185	-0.1738363252657475	0.1744541286395191	0.435971414543674	0.1750624108634538	0.1169388660805408	0.01131435266070285	0.08858585120172489	-0.3167864588387037	0.009260524457350067	-0.025353919290638	0.007087746076438117	-0.2205685236305056	-0.2205685236305061	0.03244427805729246	-0.001192892201493069	-0.02706192329556766	0.004191391323728114	-0.3290377508271916	0.03968644493554463	0.01064082089698545	-0.4701194272905367	-0.01014492768514143	-0.0003298102218427886	0.3578983912464634	-0.04099905833438111	-55.78692663294845	-14.90750915536621	8.505672612292805	7.434757127998046	-772.2667001686511	61.16395413465635	1.13690289579805	0.1761320724017724	1.826245259026885	-5.377550420340164	0.2481898201687271	-0.5678640300861325	0.3696097692967926	-5.08694752637228	-5.086947526372283	0.7419686860091189	-0.006647517126408435	-1.007517141719982	-0.03594156670689596	2.350325521230852e-08	3.453767519995309e-08	1.314212584861069e-07	1.701738827755512e-07	-1.739791072678046e-08	-3.266424348626613e-08	3.010662208397322e-07
1.05	-0.2166194059288588	-0.01344941036282354	0.6363611814590415	1.411756394509906	-0.2384946351974052	-0.08646509785288091	-0.7852191621135246	1.511416405327617	1.511416405327616	-0.1734718997346681	0.1744416949806394	0.4356503366819329	0.175102152647157	0.1280740001433888	0.01312122808086078	0.1067723452714472	-0.3702332460621556	0.01170734141872396	-0.03044045939010221	0.01141800849270203	-0.2712993985803102	-0.27129939858031	0.04048143450759371	-0.001286629949710828	-0.03715797446887349	0.003738587626764385	-0.3291897667730511	0.03972118399440831	0.01080184365625322	-0.4694386516052702	-0.01046554347242233	-0.0003243894985126588	0.3584227161649924	-0.04102885905084248	-55.88784749787435	-14.90182182450584	8.480774895817945	7.339166728120157	-772.3610896855072	61.16447347165042	1.095956928363101	0.185547406225427	1.812229357313071	-5.319949051943451	0.2417888632089352	-0.473968914218368	0.4898289427747241	-5.063562500562067	-5.063562500561925	0.8406747372398248	-0.009597992366797512	-1.011296849731641	-0.05265564344426096	2.929128802960419e-08	4.348017217513967e-08	1.618889662686429e-07	2.138318009779929e-07	-2.238776258976663e-08	-3.891755427775842e-08	3.735338396677528e-07
1.06	-0.215283966919045	-0.01330873350094171	0.6375194000999437	1.40778821069529	-0.2383655165772965	-0.08679408788672714	-0.7850791483056873	1.508450189266296	1.508450189266296	-0.1730258855165409	0.1744285517265332	0.4352281687595394	0.1751368252194404	0.1389746648796339	0.01503138867715685	0.124853954395884	-0.423348280429436	0.01410860754358785	-0.03532379606323825	0.01675204950830462	-0.3219264743812155	-0.3219264743812146	0.0487620154658624	-0.001334811245822144	-0.04727993542600891	0.003177549039675014	-0.3293417827189065	0.03975592305326541	0.01096286641553671	-0.4687578759200029	-0.01078615925970695	-0.0003189687751970657	0.3589470410835245	-0.04106604376731685	-55.99640631996562	-14.89265019981642	8.449813832170173	7.243841460823235	-772.5823199987	61.20118623801444	1.090009030477431	0.1967891076294415	1.805268269969773	-5.311199849105886	0.2390796528667129	-0.5272233448205023	0.5703654891645025	-5.066187696592391	-5.066187696592385	0.790653587602609	0.002463773294890685	-1.012699098485822	-0.05758854473201064	3.46905308507421e-08	5.163505018021574e-08	1.887463247345984e-07	2.544831650003203e-07	-2.689288745666876e-08	-4.465780477641842e-08	4.385866284555935e-07
1.07	-0.2138406943998826	-0.0131484306166849	0.6388578394076886	1.403290689551652	-0.2382126242501169	-0.08717096273832943	-0.7848808500874989	1.504978291618285	1.504978291618286	-0.1724959214821896	0.1744151685734778	0.4347045648078112	0.1751652821392503	0.1496379193213097	0.01704721894183806	0.1428091335695909	-0.4760827274766152	0.01646252753990892	-0.04001866403437709	0.02307074384426156	-0.3724285372856606	-0.3724285372856594	0.05726746880666192	-0.001337100074178648	-0.05745357204943613	0.002492066820468994	-0.3291203756755123	0.03975581899713988	0.01118113878342836	-0.4678447385499722	-0.0109514083775522	-0.0003300761906161021	0.3591639347389318	-0.04111162401289614	-56.02875256914964	-14.87594336899058	8.416087980410815	7.121864751302295	-772.3883921758646	61.20768880765277	1.048207596379256	0.2066782633524777	1.78691654860973	-5.243572669652989	0.2324865348604892	-0.4357171833496978	0.6870938629773453	-5.03854598692932	-5.038545986929263	0.8859849786541538	-0.0007887168038447343	-1.021601824990205	-0.07722450124584701	4.006909335293545e-08	5.974803355922211e-08	2.154116433432888e-07	2.949746059279607e-07	-3.137222897271535e-08	-5.037076483397032e-08	5.032450113902332e-07
